{
  "accessors": [
    {
      "bufferView": 2,
      "componentType": 5126,
      "count": 2829,
      "max": [
        0.43537381291389465,
        0.133183553814888,
        0.12849172949790955
      ],
      "min": [
        -0.5498127937316895,
        -0.12587128579616547,
        -0.12849240005016327
      ],
      "type": "VEC3"
    },
    {
      "bufferView": 2,
      "byteOffset": 33948,
      "componentType": 5126,
      "count": 2829,
      "max": [
        0.9874895811080933,
        0.9999749064445496,
        1.0
      ],
      "min": [
        -0.9999619722366333,
        -0.9999999403953552,
        -1.0
      ],
      "type": "VEC3"
    },
    {
      "bufferView": 1,
      "componentType": 5126,
      "count": 2829,
      "max": [
        0.9773260354995728,
        1.0000001192092896
      ],
      "min": [
        0.0,
        0.0
      ],
      "type": "VEC2"
    },
    {
      "bufferView": 1,
      "byteOffset": 22632,
      "componentType": 5126,
      "count": 2829,
      "max": [
        0.9773260354995728,
        1.0000001192092896
      ],
      "min": [
        0.0,
        0.0
      ],
      "type": "VEC2"
    },
    {
      "bufferView": 1,
      "byteOffset": 45264,
      "componentType": 5126,
      "count": 2829,
      "max": [
        0.9773260354995728,
        1.0000001192092896
      ],
      "min": [
        0.0,
        0.0
      ],
      "type": "VEC2"
    },
    {
      "bufferView": 0,
      "componentType": 5125,
      "count": 13032,
      "type": "SCALAR"
    },
    {
      "bufferView": 2,
      "byteOffset": 67896,
      "componentType": 5126,
      "count": 392,
      "max": [
        0.5364643931388855,
        0.08586602658033371,
        0.08836802840232849
      ],
      "min": [
        0.2854154109954834,
        -0.09086398035287857,
        -0.0883687436580658
      ],
      "type": "VEC3"
    },
    {
      "bufferView": 2,
      "byteOffset": 72600,
      "componentType": 5126,
      "count": 392,
      "max": [
        0.45155200362205505,
        0.9748684763908386,
        0.9767757058143616
      ],
      "min": [
        0.20572912693023682,
        -0.978609025478363,
        -0.9767757058143616
      ],
      "type": "VEC3"
    },
    {
      "bufferView": 1,
      "byteOffset": 67896,
      "componentType": 5126,
      "count": 392,
      "max": [
        0.9769777059555054,
        0.871552586555481
      ],
      "min": [
        0.35405778884887695,
        0.18936914205551147
      ],
      "type": "VEC2"
    },
    {
      "bufferView": 0,
      "byteOffset": 52128,
      "componentType": 5125,
      "count": 1728,
      "type": "SCALAR"
    }
  ],
  "asset": {
    "extras": {
      "author": "SomeGuyUsingBlender (https://sketchfab.com/SomeGuyUsingBlender)",
      "license": "CC-BY-4.0 (http://creativecommons.org/licenses/by/4.0/)",
      "source": "https://sketchfab.com/3d-models/artillery-shell-ea28a6a5dc554a6a92653a80b9acca34",
      "title": "Artillery Shell"
    },
    "generator": "Sketchfab-14.77.0",
    "version": "2.0"
  },
  "bufferViews": [
    {
      "buffer": 0,
      "byteLength": 59040,
      "name": "floatBufferViews",
      "target": 34963
    },
    {
      "buffer": 0,
      "byteLength": 71032,
      "byteOffset": 59040,
      "byteStride": 8,
      "name": "floatBufferViews",
      "target": 34962
    },
    {
      "buffer": 0,
      "byteLength": 77304,
      "byteOffset": 130072,
      "byteStride": 12,
      "name": "floatBufferViews",
      "target": 34962
    }
  ],
  "buffers": [
    {
      "byteLength": 207376,
      "uri": "scene.bin"
    }
  ],
  "images": [
    {
      "uri": "textures/Material.013_metallicRoughness.png"
    }
  ],
  "materials": [
    {
      "doubleSided": true,
      "name": "Material.013",
      "pbrMetallicRoughness": {
        "baseColorFactor": [
          0.022903998576993965,
          0.012512991284107215,
          0.0080137045407149,
          1.0
        ],
        "metallicFactor": 0.6201923663005449,
        "metallicRoughnessTexture": {
          "index": 0
        },
        "roughnessFactor": 0.645455
      }
    },
    {
      "doubleSided": true,
      "name": "Material.014",
      "pbrMetallicRoughness": {
        "baseColorFactor": [
          0.5978448804492565,
          0.24862000150629293,
          0.0016366068460597928,
          1.0
        ],
        "metallicFactor": 0.7177164730406796,
        "roughnessFactor": 0.0
      }
    }
  ],
  "meshes": [
    {
      "name": "Object_0",
      "primitives": [
        {
          "attributes": {
            "NORMAL": 1,
            "POSITION": 0,
            "TEXCOORD_0": 2,
            "TEXCOORD_1": 3,
            "TEXCOORD_2": 4
          },
          "indices": 5,
          "material": 0,
          "mode": 4
        }
      ]
    },
    {
      "name": "Object_1",
      "primitives": [
        {
          "attributes": {
            "NORMAL": 7,
            "POSITION": 6,
            "TEXCOORD_0": 8
          },
          "indices": 9,
          "material": 1,
          "mode": 4
        }
      ]
    }
  ],
  "nodes": [
    {
      "children": [
        1
      ],
      "matrix": [
        1.0,
        0.0,
        0.0,
        0.0,
        0.0,
        2.220446049250313e-16,
        -1.0,
        0.0,
        0.0,
        1.0,
        2.220446049250313e-16,
        0.0,
        0.0,
        0.0,
        0.0,
        1.0
      ],
      "name": "Sketchfab_model"
    },
    {
      "children": [
        2
      ],
      "name": "root"
    },
    {
      "children": [
        3
      ],
      "matrix": [
        1.0,
        0.0,
        0.0,
        0.0,
        0.0,
        2.220446049250313e-16,
        1.0,
        0.0,
        0.0,
        -1.0,
        2.220446049250313e-16,
        0.0,
        0.0,
        0.0,
        0.0,
        1.0
      ],
      "name": "GLTF_SceneRootNode"
    },
    {
      "children": [
        4,
        5
      ],
      "matrix": [
        1.0,
        0.0,
        0.0,
        0.0,
        0.0,
        1.0,
        0.0,
        0.0,
        0.0,
        0.0,
        1.0,
        0.0,
        -0.05335932970046997,
        0.0,
        -0.2339097261428833,
        1.0
      ],
      "name": "Old Artillery Bullet_0"
    },
    {
      "mesh": 0,
      "name": "Object_4"
    },
    {
      "mesh": 1,
      "name": "Object_5"
    }
  ],
  "samplers": [
    {
      "magFilter": 9729,
      "minFilter": 9987,
      "wrapS": 10497,
      "wrapT": 10497
    }
  ],
  "scene": 0,
  "scenes": [
    {
      "name": "Sketchfab_Scene",
      "nodes": [
        0
      ]
    }
  ],
  "textures": [
    {
      "sampler": 0,
      "source": 0
    }
  ]
}
